<svg width="28" height="28" viewBox="0 0 28 28" fill="none" xmlns="http://www.w3.org/2000/svg">
<path d="M20.1875 10.1562C20.1875 9.94905 20.2698 9.75034 20.4163 9.60382C20.5628 9.45731 20.7615 9.375 20.9688 9.375H22.5312C22.7385 9.375 22.9372 9.45731 23.0837 9.60382C23.2302 9.75034 23.3125 9.94905 23.3125 10.1562V11.7188C23.3125 11.926 23.2302 12.1247 23.0837 12.2712C22.9372 12.4177 22.7385 12.5 22.5312 12.5H20.9688C20.7615 12.5 20.5628 12.4177 20.4163 12.2712C20.2698 12.1247 20.1875 11.926 20.1875 11.7188V10.1562ZM15.5 10.1562C15.5 9.94905 15.5823 9.75034 15.7288 9.60382C15.8753 9.45731 16.074 9.375 16.2812 9.375H17.8438C18.051 9.375 18.2497 9.45731 18.3962 9.60382C18.5427 9.75034 18.625 9.94905 18.625 10.1562V11.7188C18.625 11.926 18.5427 12.1247 18.3962 12.2712C18.2497 12.4177 18.051 12.5 17.8438 12.5H16.2812C16.074 12.5 15.8753 12.4177 15.7288 12.2712C15.5823 12.1247 15.5 11.926 15.5 11.7188V10.1562ZM7.6875 14.8438C7.6875 14.6365 7.76981 14.4378 7.91632 14.2913C8.06284 14.1448 8.26155 14.0625 8.46875 14.0625H10.0312C10.2385 14.0625 10.4372 14.1448 10.5837 14.2913C10.7302 14.4378 10.8125 14.6365 10.8125 14.8438V16.4062C10.8125 16.6135 10.7302 16.8122 10.5837 16.9587C10.4372 17.1052 10.2385 17.1875 10.0312 17.1875H8.46875C8.26155 17.1875 8.06284 17.1052 7.91632 16.9587C7.76981 16.8122 7.6875 16.6135 7.6875 16.4062V14.8438ZM12.375 14.8438C12.375 14.6365 12.4573 14.4378 12.6038 14.2913C12.7503 14.1448 12.949 14.0625 13.1562 14.0625H14.7188C14.926 14.0625 15.1247 14.1448 15.2712 14.2913C15.4177 14.4378 15.5 14.6365 15.5 14.8438V16.4062C15.5 16.6135 15.4177 16.8122 15.2712 16.9587C15.1247 17.1052 14.926 17.1875 14.7188 17.1875H13.1562C12.949 17.1875 12.7503 17.1052 12.6038 16.9587C12.4573 16.8122 12.375 16.6135 12.375 16.4062V14.8438Z" fill="white"/>
<path d="M8.46875 0C8.67595 0 8.87466 0.08231 9.02118 0.228823C9.16769 0.375336 9.25 0.57405 9.25 0.78125V1.5625H21.75V0.78125C21.75 0.57405 21.8323 0.375336 21.9788 0.228823C22.1253 0.08231 22.324 0 22.5312 0C22.7385 0 22.9372 0.08231 23.0837 0.228823C23.2302 0.375336 23.3125 0.57405 23.3125 0.78125V1.5625H24.875C25.7038 1.5625 26.4987 1.89174 27.0847 2.47779C27.6708 3.06384 28 3.8587 28 4.6875V21.875C28 22.7038 27.6708 23.4987 27.0847 24.0847C26.4987 24.6708 25.7038 25 24.875 25H6.125C5.2962 25 4.50134 24.6708 3.91529 24.0847C3.32924 23.4987 3 22.7038 3 21.875V4.6875C3 3.8587 3.32924 3.06384 3.91529 2.47779C4.50134 1.89174 5.2962 1.5625 6.125 1.5625H7.6875V0.78125C7.6875 0.57405 7.76981 0.375336 7.91632 0.228823C8.06284 0.08231 8.26155 0 8.46875 0V0ZM4.5625 6.25V21.875C4.5625 22.2894 4.72712 22.6868 5.02015 22.9799C5.31317 23.2729 5.7106 23.4375 6.125 23.4375H24.875C25.2894 23.4375 25.6868 23.2729 25.9799 22.9799C26.2729 22.6868 26.4375 22.2894 26.4375 21.875V6.25H4.5625Z" fill="white"/>
</svg>
