<svg width="59" height="59" viewBox="0 0 59 59" fill="none" xmlns="http://www.w3.org/2000/svg">
<path d="M53.5304 20L46.0174 28C46.0174 28.4444 46.0174 28.8889 46.0174 29.3333C46.0174 40.2222 37.6696 49.1111 27.4435 49.1111C17.113 49.1111 8.86957 40.2222 8.86957 29.3333C8.86957 18.4444 17.2174 9.55556 27.4435 9.55556C31.513 9.55556 35.1652 10.8889 38.1913 13.2222L44.5565 6.44444C39.8609 2.44444 33.913 0 27.4435 0C12.313 0 0 13.1111 0 29.3333C0 45.4444 12.313 58.5556 27.4435 58.5556C42.5739 58.5556 54.887 45.4444 54.887 29.3333C54.9913 26 54.4696 22.8889 53.5304 20Z" fill="#3751FE"/>
<path d="M57.0783 11L54.9913 13.2223L52.0696 16.3334L45.287 23.5556L35.3739 34.1112L31.0956 38.6667C29.4261 40.4445 26.8174 40.4445 25.1478 38.6667L17.2174 30.2223C15.5478 28.4445 15.5478 25.6667 17.2174 23.8889C18.0522 23 19.0956 22.5556 20.2435 22.5556C21.2869 22.5556 22.4348 23 23.2696 23.8889L28.2783 29.2223L29.6348 27.7778L41.113 15.5556L51.3391 4.66671C53.0087 2.88893 55.6174 2.88893 57.287 4.66671C58.7478 6.44449 58.7478 9.33337 57.0783 11Z" fill="#3751FE"/>
</svg>
