<svg width="120" height="120" viewBox="0 0 120 120" fill="none" xmlns="http://www.w3.org/2000/svg">
<path d="M59.7913 81.4445L52.2783 89.4445C52.2783 89.8889 52.2783 90.3333 52.2783 90.7778C52.2783 101.667 43.9304 110.556 33.7043 110.556C23.3739 110.556 15.1304 101.667 15.1304 90.7778C15.1304 79.8889 23.4783 71 33.7043 71C37.7739 71 41.4261 72.3333 44.4522 74.6667L50.8174 67.8889C46.1217 63.8889 40.1739 61.4445 33.7043 61.4445C18.5739 61.4445 6.26086 74.5556 6.26086 90.7778C6.26086 106.889 18.5739 120 33.7043 120C48.8348 120 61.1478 106.889 61.1478 90.7778C61.2522 87.4445 60.7304 84.3334 59.7913 81.4445Z" fill="white"/>
<path d="M63.3391 72.4445L61.2522 74.6667L58.3304 77.7778L51.5478 85.0001L41.6348 95.5556L37.3565 100.111C35.6869 101.889 33.0782 101.889 31.4087 100.111L23.4782 91.6667C21.8087 89.8889 21.8087 87.1112 23.4782 85.3334C24.313 84.4445 25.3565 84.0001 26.5043 84.0001C27.5478 84.0001 28.6956 84.4445 29.5304 85.3334L34.5391 90.6667L35.8956 89.2223L47.3739 77.0001L57.6 66.1112C59.2696 64.3334 61.8783 64.3334 63.5478 66.1112C65.0087 67.8889 65.0087 70.7778 63.3391 72.4445Z" fill="white"/>
<path d="M22.4348 51.1111H13.6696V13.7778H0.521729V4.44446H35.5826V13.7778H22.4348V51.1111Z" fill="white"/>
<path d="M49.2522 6.7778C49.2522 7.55558 49.1478 8.33336 48.8348 9.11114C48.5217 9.77781 48.1043 10.4445 47.6869 11C47.1652 11.5556 46.5391 11.8889 45.913 12.2222C45.2869 12.5556 44.5565 12.6667 43.7217 12.6667C42.9913 12.6667 42.2608 12.5556 41.5304 12.2222C40.9043 11.8889 40.2782 11.4445 39.7565 11C39.2348 10.4445 38.9217 9.77781 38.6087 9.11114C38.2956 8.44447 38.1913 7.66669 38.1913 6.7778C38.1913 6.00003 38.2956 5.22225 38.6087 4.44447C38.9217 3.66669 39.3391 3.11114 39.7565 2.55558C40.2782 2.00003 40.9043 1.55558 41.5304 1.33336C42.2608 1.00003 42.9913 0.888916 43.7217 0.888916C44.4522 0.888916 45.1826 1.00003 45.913 1.33336C46.6435 1.66669 47.1652 2.11114 47.6869 2.55558C48.2087 3.11114 48.6261 3.66669 48.8348 4.44447C49.0435 5.22225 49.2522 6.00003 49.2522 6.7778ZM47.7913 51.1111H39.3391V16.2222H47.7913V51.1111Z" fill="white"/>
<path d="M82.7479 23.2222L76.5913 29.7777C76.2783 28.8889 75.8609 28 75.3392 27.3333C74.8174 26.5555 74.1913 26 73.5652 25.4444C72.9392 25 72.2087 24.5555 71.3739 24.3333C70.6435 24.1111 69.8087 23.8889 68.9739 23.8889C67.8261 23.8889 66.7826 24.1111 65.7392 24.6666C64.6957 25.1111 63.8609 25.8889 63.1305 26.7777C62.4 27.6666 61.7739 28.7777 61.3565 30C60.9392 31.2222 60.7305 32.5555 60.7305 34.1111C60.7305 35.3333 60.9392 36.4444 61.3565 37.5555C61.7739 38.6666 62.4 39.5555 63.1305 40.3333C63.8609 41.1111 64.8 41.7777 65.7392 42.2222C66.7826 42.6666 67.8261 42.8889 68.9739 42.8889C69.8087 42.8889 70.5392 42.7777 71.3739 42.5555C72.1044 42.3333 72.8348 42 73.4609 41.5555C74.087 41.1111 74.7131 40.5555 75.2348 39.8889C75.7565 39.2222 76.1739 38.5555 76.487 37.7777L82.6435 44.3333C81.9131 45.5555 80.9739 46.5555 79.9305 47.4444C78.887 48.3333 77.8435 49.2222 76.6957 49.7777C75.5479 50.4444 74.2957 50.8889 73.0435 51.2222C71.7913 51.5555 70.4348 51.7777 69.0783 51.7777C66.7826 51.7777 64.5913 51.3333 62.6087 50.4444C60.6261 49.5555 58.8522 48.2222 57.287 46.6666C55.8261 45.1111 54.5739 43.2222 53.7392 41C52.9044 38.8889 52.3826 36.5555 52.3826 34.1111C52.3826 31.4444 52.8 29 53.7392 26.6666C54.5739 24.3333 55.8261 22.3333 57.287 20.6666C58.8522 18.8889 60.6261 17.5555 62.6087 16.5555C64.6957 15.5555 66.7826 15.1111 69.0783 15.1111C70.4348 15.1111 71.7913 15.3333 73.0435 15.6666C74.4 16 75.6522 16.5555 76.8 17.3333C78.0522 18 79.0957 18.8889 80.1392 19.8889C81.1826 20.6666 82.0174 21.8889 82.7479 23.2222Z" fill="white"/>
<path d="M95.2696 51.1111H86.8174V2.33337H95.2696V33.1111L107.687 16.3334H117.287L106.435 30.7778L117.287 51.1111H107.687L101.009 38.4445L95.2696 46.6667V51.1111Z" fill="white"/>
<path d="M81.6 116.667H73.2522V90.6666H69.1826V81.7777H73.2522V80.1111C73.2522 78 73.6696 75.8888 74.4 74.1111C75.1304 72.2222 76.1739 70.5555 77.5304 69.2222C78.887 67.7777 80.4522 66.6666 82.2261 65.8888C84 65.1111 85.8783 64.6666 87.8609 64.6666H94.1217V73.5555H87.8609C86.9217 73.5555 86.087 73.7777 85.3565 74.1111C84.6261 74.4444 83.8957 74.8888 83.3739 75.5555C82.8522 76.1111 82.4348 76.8888 82.0174 77.6666C81.7044 78.4444 81.4957 79.3333 81.4957 80.3333V82H91.8261V90.8889H81.6V116.667Z" fill="white"/>
<path d="M106.435 116.667H98.0869V90.6666H91.826V81.7777H98.0869V80.1111C98.0869 78 98.5043 75.8888 99.2347 74.1111C99.9652 72.2222 101.009 70.5555 102.365 69.2222C103.722 67.7777 105.287 66.6666 107.061 65.8888C108.835 65.1111 110.713 64.6666 112.696 64.6666H118.956V73.5555H112.696C111.756 73.5555 110.922 73.7777 110.191 74.1111C109.461 74.4444 108.73 74.8888 108.209 75.5555C107.687 76.1111 107.27 76.8888 106.852 77.6666C106.539 78.4444 106.33 79.3333 106.33 80.3333V82H116.556V90.8889H106.435V116.667Z" fill="white"/>
</svg>
