<svg width="30" height="30" viewBox="0 0 30 30" fill="none" xmlns="http://www.w3.org/2000/svg">
<path d="M23.75 2.5H22.5V1.25C22.5 0.5625 21.9375 0 21.25 0C20.5625 0 20 0.5625 20 1.25V2.5H10V1.25C10 0.5625 9.4375 0 8.75 0C8.0625 0 7.5 0.5625 7.5 1.25V2.5H6.25C4.8625 2.5 3.7625 3.625 3.7625 5L3.75 22.5C3.75 23.163 4.01339 23.7989 4.48223 24.2678C4.95107 24.7366 5.58696 25 6.25 25H23.75C25.125 25 26.25 23.875 26.25 22.5V5C26.25 3.625 25.125 2.5 23.75 2.5ZM22.5 22.5H7.5C6.8125 22.5 6.25 21.9375 6.25 21.25V8.75H23.75V21.25C23.75 21.9375 23.1875 22.5 22.5 22.5ZM10 11.25H13.75C14.4375 11.25 15 11.8125 15 12.5V16.25C15 16.9375 14.4375 17.5 13.75 17.5H10C9.3125 17.5 8.75 16.9375 8.75 16.25V12.5C8.75 11.8125 9.3125 11.25 10 11.25Z" fill="white"/>
</svg>
