<svg width="156" height="156" viewBox="0 0 156 156" fill="none" xmlns="http://www.w3.org/2000/svg">
<path d="M20.0325 125.595C20.0325 125.595 36.75 104.25 78 104.25C119.25 104.25 135.975 125.595 135.975 125.595H20.0325ZM78 78C83.9673 78 89.6903 75.6295 93.9099 71.4099C98.1294 67.1903 100.5 61.4674 100.5 55.5C100.5 49.5326 98.1294 43.8097 93.9099 39.5901C89.6903 35.3705 83.9673 33 78 33C72.0326 33 66.3096 35.3705 62.0901 39.5901C57.8705 43.8097 55.5 49.5326 55.5 55.5C55.5 61.4674 57.8705 67.1903 62.0901 71.4099C66.3096 75.6295 72.0326 78 78 78Z" stroke="#9B9B9B" stroke-width="5" stroke-linecap="round" stroke-linejoin="round"/>
<path d="M78 3C36.5775 3 3 36.5775 3 78C3 119.422 36.5775 153 78 153C119.422 153 153 119.422 153 78C153 36.5775 119.422 3 78 3Z" stroke="#8998FF" stroke-width="5" stroke-linecap="round" stroke-linejoin="round"/>
<rect x="44" y="29" width="78" height="66" fill="white"/>
<path d="M105.53 53L98.0174 61C98.0174 61.4444 98.0174 61.8889 98.0174 62.3333C98.0174 73.2222 89.6696 82.1111 79.4435 82.1111C69.113 82.1111 60.8696 73.2222 60.8696 62.3333C60.8696 51.4444 69.2174 42.5556 79.4435 42.5556C83.513 42.5556 87.1652 43.8889 90.1913 46.2222L96.5565 39.4444C91.8609 35.4444 85.913 33 79.4435 33C64.313 33 52 46.1111 52 62.3333C52 78.4444 64.313 91.5556 79.4435 91.5556C94.5739 91.5556 106.887 78.4444 106.887 62.3333C106.991 59 106.47 55.8889 105.53 53Z" fill="#9B9B9B"/>
<path d="M109.078 44L106.991 46.2223L104.07 49.3334L97.287 56.5556L87.3739 67.1112L83.0956 71.6667C81.4261 73.4445 78.8174 73.4445 77.1478 71.6667L69.2174 63.2223C67.5478 61.4445 67.5478 58.6667 69.2174 56.8889C70.0522 56 71.0956 55.5556 72.2435 55.5556C73.2869 55.5556 74.4348 56 75.2696 56.8889L80.2783 62.2223L81.6348 60.7778L93.113 48.5556L103.339 37.6667C105.009 35.8889 107.617 35.8889 109.287 37.6667C110.748 39.4445 110.748 42.3334 109.078 44Z" fill="#3751FE"/>
</svg>
