<svg width="30" height="30" viewBox="0 0 30 30" fill="none" xmlns="http://www.w3.org/2000/svg">
<path d="M6.25 27.5H23.75C25.1287 27.5 26.25 26.3787 26.25 25V6.25C26.25 4.87125 25.1287 3.75 23.75 3.75H21.25C21.25 3.41848 21.1183 3.10054 20.8839 2.86612C20.6495 2.6317 20.3315 2.5 20 2.5H10C9.66848 2.5 9.35054 2.6317 9.11612 2.86612C8.8817 3.10054 8.75 3.41848 8.75 3.75H6.25C4.87125 3.75 3.75 4.87125 3.75 6.25V25C3.75 26.3787 4.87125 27.5 6.25 27.5ZM6.25 6.25H8.75V8.75H21.25V6.25H23.75V25H6.25V6.25Z" fill="white"/>
<path d="M13.75 16.9825L11.5088 14.7412L9.74127 16.5087L13.75 20.5175L20.2588 14.0087L18.4913 12.2412L13.75 16.9825Z" fill="white"/>
</svg>
